<mxfile host="app.diagrams.net" modified="2024-02-15T13:31:11.480Z" agent="Mozilla/5.0 (Windows NT 10.0; Win64; x64) AppleWebKit/537.36 (KHTML, like Gecko) Chrome/121.0.0.0 Safari/537.36" etag="1AuA5SJDn0bfqE5WM9z_" version="22.1.17" type="device">
  <diagram name="第 1 页" id="fOnnrjcTGDBnkUeyOYlG">
    <mxGraphModel dx="957" dy="426" grid="0" gridSize="10" guides="1" tooltips="1" connect="1" arrows="1" fold="1" page="1" pageScale="1" pageWidth="1100" pageHeight="1200" math="1" shadow="0">
      <root>
        <mxCell id="0" />
        <mxCell id="1" parent="0" />
        <mxCell id="J8y7uaH8IraPNljRpGLL-29" value="" style="rounded=0;whiteSpace=wrap;html=1;fillColor=#d5e8d4;dashed=1;strokeColor=#82b366;opacity=50;" parent="1" vertex="1">
          <mxGeometry x="125" y="290" width="170" height="50" as="geometry" />
        </mxCell>
        <mxCell id="J8y7uaH8IraPNljRpGLL-38" value="" style="rounded=0;whiteSpace=wrap;html=1;fillColor=#dae8fc;dashed=1;strokeColor=#6c8ebf;opacity=50;" parent="1" vertex="1">
          <mxGeometry x="110" y="90" width="210" height="100" as="geometry" />
        </mxCell>
        <mxCell id="J8y7uaH8IraPNljRpGLL-1" value="Target model `M_p`" style="rounded=0;whiteSpace=wrap;html=1;" parent="1" vertex="1">
          <mxGeometry x="150" y="220" width="120" height="40" as="geometry" />
        </mxCell>
        <mxCell id="J8y7uaH8IraPNljRpGLL-2" value="`x_1`" style="whiteSpace=wrap;html=1;aspect=fixed;" parent="1" vertex="1">
          <mxGeometry x="135" y="300" width="30" height="30" as="geometry" />
        </mxCell>
        <mxCell id="J8y7uaH8IraPNljRpGLL-3" value="`x_2`" style="whiteSpace=wrap;html=1;aspect=fixed;" parent="1" vertex="1">
          <mxGeometry x="175" y="300" width="30" height="30" as="geometry" />
        </mxCell>
        <mxCell id="J8y7uaH8IraPNljRpGLL-4" value="`x_\gamma`" style="whiteSpace=wrap;html=1;aspect=fixed;" parent="1" vertex="1">
          <mxGeometry x="255" y="300" width="30" height="30" as="geometry" />
        </mxCell>
        <mxCell id="J8y7uaH8IraPNljRpGLL-5" value="&lt;font style=&quot;font-size: 18px;&quot;&gt;&lt;b&gt;...&lt;/b&gt;&lt;/font&gt;" style="text;html=1;strokeColor=none;fillColor=none;align=center;verticalAlign=middle;whiteSpace=wrap;rounded=0;" parent="1" vertex="1">
          <mxGeometry x="215" y="305" width="30" height="20" as="geometry" />
        </mxCell>
        <mxCell id="J8y7uaH8IraPNljRpGLL-6" value="" style="rounded=0;whiteSpace=wrap;html=1;" parent="1" vertex="1">
          <mxGeometry x="120" y="100" width="20" height="80" as="geometry" />
        </mxCell>
        <mxCell id="J8y7uaH8IraPNljRpGLL-8" value="" style="rounded=0;whiteSpace=wrap;html=1;" parent="1" vertex="1">
          <mxGeometry x="160" y="100" width="20" height="80" as="geometry" />
        </mxCell>
        <mxCell id="J8y7uaH8IraPNljRpGLL-9" value="" style="rounded=0;whiteSpace=wrap;html=1;" parent="1" vertex="1">
          <mxGeometry x="250" y="100" width="20" height="80" as="geometry" />
        </mxCell>
        <mxCell id="J8y7uaH8IraPNljRpGLL-10" value="&lt;font style=&quot;font-size: 18px;&quot;&gt;&lt;b&gt;...&lt;/b&gt;&lt;/font&gt;" style="text;html=1;strokeColor=none;fillColor=none;align=center;verticalAlign=middle;whiteSpace=wrap;rounded=0;" parent="1" vertex="1">
          <mxGeometry x="200" y="130" width="30" height="20" as="geometry" />
        </mxCell>
        <mxCell id="J8y7uaH8IraPNljRpGLL-11" value="" style="rounded=0;whiteSpace=wrap;html=1;" parent="1" vertex="1">
          <mxGeometry x="290" y="100" width="20" height="80" as="geometry" />
        </mxCell>
        <mxCell id="J8y7uaH8IraPNljRpGLL-12" value="`p_1(x_1)`" style="text;html=1;strokeColor=none;fillColor=none;align=center;verticalAlign=middle;whiteSpace=wrap;rounded=0;" parent="1" vertex="1">
          <mxGeometry x="110" y="45" width="40" height="30" as="geometry" />
        </mxCell>
        <mxCell id="J8y7uaH8IraPNljRpGLL-13" value="`p_2(x_2)`" style="text;html=1;strokeColor=none;fillColor=none;align=center;verticalAlign=middle;whiteSpace=wrap;rounded=0;" parent="1" vertex="1">
          <mxGeometry x="150" y="45" width="40" height="30" as="geometry" />
        </mxCell>
        <mxCell id="J8y7uaH8IraPNljRpGLL-15" value="`p_\gamma(x_\gamma)`" style="text;html=1;strokeColor=none;fillColor=none;align=center;verticalAlign=middle;whiteSpace=wrap;rounded=0;" parent="1" vertex="1">
          <mxGeometry x="240" y="45" width="40" height="30" as="geometry" />
        </mxCell>
        <mxCell id="J8y7uaH8IraPNljRpGLL-16" value="`x_{\gamma+1}~p(x)`" style="text;html=1;strokeColor=none;fillColor=none;align=center;verticalAlign=middle;whiteSpace=wrap;rounded=0;" parent="1" vertex="1">
          <mxGeometry x="320" y="140" width="80" height="30" as="geometry" />
        </mxCell>
        <mxCell id="J8y7uaH8IraPNljRpGLL-17" value="" style="shape=curlyBracket;whiteSpace=wrap;html=1;rounded=1;labelPosition=left;verticalLabelPosition=middle;align=right;verticalAlign=middle;" parent="1" vertex="1">
          <mxGeometry x="90" y="100" width="20" height="80" as="geometry" />
        </mxCell>
        <mxCell id="J8y7uaH8IraPNljRpGLL-18" value="token size" style="text;html=1;strokeColor=none;fillColor=none;align=center;verticalAlign=middle;whiteSpace=wrap;rounded=0;" parent="1" vertex="1">
          <mxGeometry x="40" y="125" width="50" height="30" as="geometry" />
        </mxCell>
        <mxCell id="J8y7uaH8IraPNljRpGLL-19" value="" style="rounded=0;whiteSpace=wrap;html=1;fillColor=#d5e8d4;strokeColor=#82b366;" parent="1" vertex="1">
          <mxGeometry x="120" y="120" width="20" height="10" as="geometry" />
        </mxCell>
        <mxCell id="J8y7uaH8IraPNljRpGLL-21" value="" style="curved=1;endArrow=classic;html=1;rounded=0;entryX=0;entryY=0.75;entryDx=0;entryDy=0;exitX=0;exitY=0.5;exitDx=0;exitDy=0;dashed=1;" parent="1" source="J8y7uaH8IraPNljRpGLL-19" target="J8y7uaH8IraPNljRpGLL-12" edge="1">
          <mxGeometry width="50" height="50" relative="1" as="geometry">
            <mxPoint x="60" y="130" as="sourcePoint" />
            <mxPoint x="110" y="80" as="targetPoint" />
            <Array as="points">
              <mxPoint x="90" y="100" />
            </Array>
          </mxGeometry>
        </mxCell>
        <mxCell id="J8y7uaH8IraPNljRpGLL-22" value="" style="rounded=0;whiteSpace=wrap;html=1;fillColor=#d5e8d4;strokeColor=#82b366;" parent="1" vertex="1">
          <mxGeometry x="160" y="145" width="20" height="10" as="geometry" />
        </mxCell>
        <mxCell id="J8y7uaH8IraPNljRpGLL-23" value="" style="curved=1;endArrow=classic;html=1;rounded=0;exitX=1;exitY=0.5;exitDx=0;exitDy=0;dashed=1;" parent="1" source="J8y7uaH8IraPNljRpGLL-22" target="J8y7uaH8IraPNljRpGLL-13" edge="1">
          <mxGeometry width="50" height="50" relative="1" as="geometry">
            <mxPoint x="220" y="132" as="sourcePoint" />
            <mxPoint x="205" y="90" as="targetPoint" />
            <Array as="points">
              <mxPoint x="200" y="110" />
            </Array>
          </mxGeometry>
        </mxCell>
        <mxCell id="J8y7uaH8IraPNljRpGLL-24" value="" style="rounded=0;whiteSpace=wrap;html=1;fillColor=#d5e8d4;strokeColor=#82b366;" parent="1" vertex="1">
          <mxGeometry x="250" y="110" width="20" height="10" as="geometry" />
        </mxCell>
        <mxCell id="J8y7uaH8IraPNljRpGLL-26" value="" style="curved=1;endArrow=classic;html=1;rounded=0;entryX=0;entryY=0.75;entryDx=0;entryDy=0;exitX=0;exitY=0.5;exitDx=0;exitDy=0;dashed=1;" parent="1" source="J8y7uaH8IraPNljRpGLL-24" target="J8y7uaH8IraPNljRpGLL-15" edge="1">
          <mxGeometry width="50" height="50" relative="1" as="geometry">
            <mxPoint x="220" y="180" as="sourcePoint" />
            <mxPoint x="270" y="130" as="targetPoint" />
            <Array as="points">
              <mxPoint x="230" y="100" />
            </Array>
          </mxGeometry>
        </mxCell>
        <mxCell id="J8y7uaH8IraPNljRpGLL-27" value="`p_{\gamma+1}(x)`" style="text;html=1;strokeColor=none;fillColor=none;align=center;verticalAlign=middle;whiteSpace=wrap;rounded=0;" parent="1" vertex="1">
          <mxGeometry x="286" y="45" width="54" height="30" as="geometry" />
        </mxCell>
        <mxCell id="J8y7uaH8IraPNljRpGLL-28" value="" style="rounded=0;whiteSpace=wrap;html=1;fillColor=#f8cecc;strokeColor=#b85450;" parent="1" vertex="1">
          <mxGeometry x="290" y="150" width="20" height="10" as="geometry" />
        </mxCell>
        <mxCell id="J8y7uaH8IraPNljRpGLL-30" style="edgeStyle=orthogonalEdgeStyle;rounded=0;orthogonalLoop=1;jettySize=auto;html=1;exitX=0.5;exitY=0;exitDx=0;exitDy=0;entryX=0.5;entryY=1;entryDx=0;entryDy=0;" parent="1" source="J8y7uaH8IraPNljRpGLL-29" target="J8y7uaH8IraPNljRpGLL-1" edge="1">
          <mxGeometry relative="1" as="geometry" />
        </mxCell>
        <mxCell id="J8y7uaH8IraPNljRpGLL-31" value="Tokens proposed by approx. model `M_q` &lt;font color=&quot;#97d077&quot;&gt;(&lt;b&gt;auto-regrassively&lt;/b&gt;)&lt;/font&gt;" style="text;html=1;strokeColor=none;fillColor=none;align=center;verticalAlign=middle;whiteSpace=wrap;rounded=0;" parent="1" vertex="1">
          <mxGeometry x="125" y="340" width="171" height="30" as="geometry" />
        </mxCell>
        <mxCell id="J8y7uaH8IraPNljRpGLL-36" style="rounded=0;orthogonalLoop=1;jettySize=auto;html=1;exitX=0.5;exitY=1;exitDx=0;exitDy=0;entryX=0.5;entryY=0;entryDx=0;entryDy=0;" parent="1" source="J8y7uaH8IraPNljRpGLL-33" target="J8y7uaH8IraPNljRpGLL-16" edge="1">
          <mxGeometry relative="1" as="geometry" />
        </mxCell>
        <mxCell id="J8y7uaH8IraPNljRpGLL-33" value="Traditional Sampling" style="rounded=0;whiteSpace=wrap;html=1;fillColor=#f8cecc;strokeColor=#b85450;" parent="1" vertex="1">
          <mxGeometry x="375" y="40" width="70" height="40" as="geometry" />
        </mxCell>
        <mxCell id="J8y7uaH8IraPNljRpGLL-34" style="edgeStyle=orthogonalEdgeStyle;rounded=0;orthogonalLoop=1;jettySize=auto;html=1;exitX=1;exitY=0.5;exitDx=0;exitDy=0;entryX=0;entryY=0.5;entryDx=0;entryDy=0;" parent="1" source="J8y7uaH8IraPNljRpGLL-27" target="J8y7uaH8IraPNljRpGLL-33" edge="1">
          <mxGeometry relative="1" as="geometry" />
        </mxCell>
        <mxCell id="J8y7uaH8IraPNljRpGLL-37" style="edgeStyle=orthogonalEdgeStyle;rounded=0;orthogonalLoop=1;jettySize=auto;html=1;exitX=0.5;exitY=0;exitDx=0;exitDy=0;" parent="1" source="J8y7uaH8IraPNljRpGLL-1" edge="1">
          <mxGeometry relative="1" as="geometry">
            <mxPoint x="209.86" y="220" as="sourcePoint" />
            <mxPoint x="210" y="190" as="targetPoint" />
          </mxGeometry>
        </mxCell>
        <mxCell id="J8y7uaH8IraPNljRpGLL-39" value="&lt;font color=&quot;#0000ff&quot;&gt;&lt;b&gt;Run `M_p` in parallel&lt;/b&gt;&lt;/font&gt;" style="text;html=1;strokeColor=none;fillColor=none;align=center;verticalAlign=middle;whiteSpace=wrap;rounded=0;" parent="1" vertex="1">
          <mxGeometry x="150" y="200" width="120" height="20" as="geometry" />
        </mxCell>
        <mxCell id="J8y7uaH8IraPNljRpGLL-88" value="&lt;font color=&quot;#0000ff&quot;&gt;(&lt;b&gt;`1` forward&lt;/b&gt;)&lt;/font&gt;" style="text;html=1;strokeColor=none;fillColor=none;align=center;verticalAlign=middle;whiteSpace=wrap;rounded=0;" parent="1" vertex="1">
          <mxGeometry x="170" y="170" width="80" height="20" as="geometry" />
        </mxCell>
        <mxCell id="J8y7uaH8IraPNljRpGLL-90" value="&lt;font color=&quot;#67ab9f&quot;&gt;# One step/run of Speculative Decoding&lt;/font&gt;&lt;br&gt;for n=1, ..., `\gamma`&lt;br&gt;&lt;span style=&quot;&quot;&gt;&lt;span style=&quot;&quot;&gt;&amp;nbsp;&amp;nbsp;&amp;nbsp;&amp;nbsp;&lt;/span&gt;&lt;/span&gt;if `p_n(x_n)\geq q_n(x_n)` then accept proposal token `x_n`&lt;br&gt;&lt;span style=&quot;&quot;&gt;&lt;span style=&quot;&quot;&gt;&amp;nbsp;&amp;nbsp;&amp;nbsp;&amp;nbsp;&lt;/span&gt;&lt;/span&gt;else&lt;br&gt;&lt;span style=&quot;&quot;&gt;&lt;span style=&quot;&quot;&gt;&amp;nbsp;&amp;nbsp;&amp;nbsp;&amp;nbsp;&lt;/span&gt;&lt;span style=&quot;&quot;&gt;&lt;span style=&quot;&quot;&gt;&amp;nbsp;&amp;nbsp;&amp;nbsp;&amp;nbsp;&lt;/span&gt;&lt;/span&gt;&lt;/span&gt;sample a random variable `r~U(0,1)`&lt;br&gt;&lt;span style=&quot;&quot;&gt;&lt;span style=&quot;&quot;&gt;&amp;nbsp;&amp;nbsp;&amp;nbsp;&amp;nbsp;&lt;/span&gt;&lt;/span&gt;&lt;span style=&quot;&quot;&gt;&lt;span style=&quot;&quot;&gt;&amp;nbsp;&amp;nbsp;&amp;nbsp;&amp;nbsp;&lt;/span&gt;&lt;/span&gt;if `r\geq {p_n(x_n)}/{q_n(x_n)`&lt;br&gt;&lt;span style=&quot;&quot;&gt;&lt;span style=&quot;&quot;&gt;&amp;nbsp;&amp;nbsp;&amp;nbsp;&amp;nbsp;&lt;/span&gt;&lt;/span&gt;&lt;span style=&quot;&quot;&gt;&lt;span style=&quot;&quot;&gt;&amp;nbsp;&amp;nbsp;&amp;nbsp;&amp;nbsp;&lt;/span&gt;&lt;/span&gt;&lt;span style=&quot;&quot;&gt;&lt;span style=&quot;&quot;&gt;&amp;nbsp;&amp;nbsp;&amp;nbsp;&amp;nbsp;&lt;/span&gt;&lt;/span&gt;accept proposal token `x_n`&lt;br&gt;&lt;span style=&quot;&quot;&gt;&lt;span style=&quot;&quot;&gt;&amp;nbsp;&amp;nbsp;&amp;nbsp;&amp;nbsp;&lt;/span&gt;&lt;/span&gt;&lt;span style=&quot;&quot;&gt;&lt;span style=&quot;&quot;&gt;&amp;nbsp;&amp;nbsp;&amp;nbsp;&amp;nbsp;&lt;/span&gt;&lt;/span&gt;else&lt;br&gt;&lt;span style=&quot;&quot;&gt;&lt;span style=&quot;&quot;&gt;&amp;nbsp;&amp;nbsp;&amp;nbsp;&amp;nbsp;&lt;/span&gt;&lt;/span&gt;&lt;span style=&quot;&quot;&gt;&lt;span style=&quot;&quot;&gt;&amp;nbsp;&amp;nbsp;&amp;nbsp;&amp;nbsp;&lt;/span&gt;&lt;/span&gt;&lt;span style=&quot;&quot;&gt;&lt;span style=&quot;&quot;&gt;&amp;nbsp;&amp;nbsp;&amp;nbsp;&amp;nbsp;&lt;/span&gt;&lt;/span&gt;resample `x_n~&lt;br&gt;p&#39;_n(x)=\text{norm}(\max(0,p_n(x)-q_n(x)))`&lt;br&gt;&lt;span style=&quot;white-space: pre;&quot;&gt;&#x9;&lt;/span&gt;&amp;nbsp; &amp;nbsp; &quot;# generated token&quot; is `n`&lt;br&gt;&lt;span style=&quot;&quot;&gt;&lt;span style=&quot;&quot;&gt;&amp;nbsp;&amp;nbsp;&amp;nbsp;&amp;nbsp;&lt;/span&gt;&lt;/span&gt;&lt;span style=&quot;&quot;&gt;&lt;span style=&quot;&quot;&gt;&amp;nbsp;&amp;nbsp;&amp;nbsp;&amp;nbsp;&lt;/span&gt;&lt;/span&gt;&lt;span style=&quot;&quot;&gt;&lt;span style=&quot;&quot;&gt;&amp;nbsp;&amp;nbsp;&amp;nbsp;&amp;nbsp;&lt;/span&gt;&lt;/span&gt;break the loop&lt;br&gt;if all proposal tokens are accepted&lt;br&gt;&lt;span style=&quot;&quot;&gt;&lt;span style=&quot;&quot;&gt;&amp;nbsp;&amp;nbsp;&amp;nbsp;&amp;nbsp;&lt;/span&gt;&lt;/span&gt;&quot;# generated token&quot; is `\gamma+1`&lt;br&gt;&lt;span style=&quot;&quot;&gt;&lt;span style=&quot;&quot;&gt;&amp;nbsp;&amp;nbsp;&amp;nbsp;&amp;nbsp;&lt;/span&gt;&lt;/span&gt;sample `x_{\gamma+1}~p_{\gamma+1}(x)`" style="rounded=0;whiteSpace=wrap;html=1;align=left;fillColor=#f8cecc;strokeColor=#b85450;opacity=30;" parent="1" vertex="1">
          <mxGeometry x="720" y="320" width="370" height="235" as="geometry" />
        </mxCell>
        <mxCell id="J8y7uaH8IraPNljRpGLL-91" value="" style="group" parent="1" vertex="1" connectable="0">
          <mxGeometry x="380" y="250" width="330" height="480" as="geometry" />
        </mxCell>
        <mxCell id="J8y7uaH8IraPNljRpGLL-42" value="" style="rounded=0;whiteSpace=wrap;html=1;fillColor=#d5e8d4;dashed=1;strokeColor=#82b366;opacity=50;" parent="J8y7uaH8IraPNljRpGLL-91" vertex="1">
          <mxGeometry x="115" y="400" width="170" height="50" as="geometry" />
        </mxCell>
        <mxCell id="J8y7uaH8IraPNljRpGLL-43" value="" style="rounded=0;whiteSpace=wrap;html=1;fillColor=#dae8fc;dashed=1;strokeColor=#6c8ebf;opacity=50;" parent="J8y7uaH8IraPNljRpGLL-91" vertex="1">
          <mxGeometry x="100" y="200" width="210" height="100" as="geometry" />
        </mxCell>
        <mxCell id="J8y7uaH8IraPNljRpGLL-44" value="Target model `M_p`" style="rounded=0;whiteSpace=wrap;html=1;" parent="J8y7uaH8IraPNljRpGLL-91" vertex="1">
          <mxGeometry x="140" y="330" width="120" height="40" as="geometry" />
        </mxCell>
        <mxCell id="J8y7uaH8IraPNljRpGLL-45" value="`x_1`" style="whiteSpace=wrap;html=1;aspect=fixed;" parent="J8y7uaH8IraPNljRpGLL-91" vertex="1">
          <mxGeometry x="125" y="410" width="30" height="30" as="geometry" />
        </mxCell>
        <mxCell id="J8y7uaH8IraPNljRpGLL-46" value="`x_2`" style="whiteSpace=wrap;html=1;aspect=fixed;" parent="J8y7uaH8IraPNljRpGLL-91" vertex="1">
          <mxGeometry x="165" y="410" width="30" height="30" as="geometry" />
        </mxCell>
        <mxCell id="J8y7uaH8IraPNljRpGLL-47" value="`x_\gamma`" style="whiteSpace=wrap;html=1;aspect=fixed;" parent="J8y7uaH8IraPNljRpGLL-91" vertex="1">
          <mxGeometry x="245" y="410" width="30" height="30" as="geometry" />
        </mxCell>
        <mxCell id="J8y7uaH8IraPNljRpGLL-48" value="&lt;font style=&quot;font-size: 18px;&quot;&gt;&lt;b&gt;...&lt;/b&gt;&lt;/font&gt;" style="text;html=1;strokeColor=none;fillColor=none;align=center;verticalAlign=middle;whiteSpace=wrap;rounded=0;" parent="J8y7uaH8IraPNljRpGLL-91" vertex="1">
          <mxGeometry x="205" y="415" width="30" height="20" as="geometry" />
        </mxCell>
        <mxCell id="J8y7uaH8IraPNljRpGLL-49" value="" style="rounded=0;whiteSpace=wrap;html=1;" parent="J8y7uaH8IraPNljRpGLL-91" vertex="1">
          <mxGeometry x="110" y="210" width="20" height="80" as="geometry" />
        </mxCell>
        <mxCell id="J8y7uaH8IraPNljRpGLL-50" value="" style="rounded=0;whiteSpace=wrap;html=1;" parent="J8y7uaH8IraPNljRpGLL-91" vertex="1">
          <mxGeometry x="150" y="210" width="20" height="80" as="geometry" />
        </mxCell>
        <mxCell id="J8y7uaH8IraPNljRpGLL-51" value="" style="rounded=0;whiteSpace=wrap;html=1;" parent="J8y7uaH8IraPNljRpGLL-91" vertex="1">
          <mxGeometry x="240" y="210" width="20" height="80" as="geometry" />
        </mxCell>
        <mxCell id="J8y7uaH8IraPNljRpGLL-52" value="&lt;font style=&quot;font-size: 18px;&quot;&gt;&lt;b&gt;...&lt;/b&gt;&lt;/font&gt;" style="text;html=1;strokeColor=none;fillColor=none;align=center;verticalAlign=middle;whiteSpace=wrap;rounded=0;" parent="J8y7uaH8IraPNljRpGLL-91" vertex="1">
          <mxGeometry x="190" y="240" width="30" height="20" as="geometry" />
        </mxCell>
        <mxCell id="J8y7uaH8IraPNljRpGLL-53" value="" style="rounded=0;whiteSpace=wrap;html=1;" parent="J8y7uaH8IraPNljRpGLL-91" vertex="1">
          <mxGeometry x="280" y="210" width="20" height="80" as="geometry" />
        </mxCell>
        <mxCell id="J8y7uaH8IraPNljRpGLL-54" value="`p_1(x_1)`" style="text;html=1;strokeColor=none;fillColor=none;align=center;verticalAlign=middle;whiteSpace=wrap;rounded=0;" parent="J8y7uaH8IraPNljRpGLL-91" vertex="1">
          <mxGeometry x="100" y="155" width="40" height="30" as="geometry" />
        </mxCell>
        <mxCell id="J8y7uaH8IraPNljRpGLL-55" value="`p_2(x_2)`" style="text;html=1;strokeColor=none;fillColor=none;align=center;verticalAlign=middle;whiteSpace=wrap;rounded=0;" parent="J8y7uaH8IraPNljRpGLL-91" vertex="1">
          <mxGeometry x="140" y="155" width="40" height="30" as="geometry" />
        </mxCell>
        <mxCell id="J8y7uaH8IraPNljRpGLL-56" value="`p_\gamma(x_\gamma)`" style="text;html=1;strokeColor=none;fillColor=none;align=center;verticalAlign=middle;whiteSpace=wrap;rounded=0;" parent="J8y7uaH8IraPNljRpGLL-91" vertex="1">
          <mxGeometry x="230" y="155" width="40" height="30" as="geometry" />
        </mxCell>
        <mxCell id="J8y7uaH8IraPNljRpGLL-58" value="" style="shape=curlyBracket;whiteSpace=wrap;html=1;rounded=1;labelPosition=left;verticalLabelPosition=middle;align=right;verticalAlign=middle;" parent="J8y7uaH8IraPNljRpGLL-91" vertex="1">
          <mxGeometry x="80" y="210" width="20" height="80" as="geometry" />
        </mxCell>
        <mxCell id="J8y7uaH8IraPNljRpGLL-59" value="token size" style="text;html=1;strokeColor=none;fillColor=none;align=center;verticalAlign=middle;whiteSpace=wrap;rounded=0;" parent="J8y7uaH8IraPNljRpGLL-91" vertex="1">
          <mxGeometry x="10" y="235" width="70" height="30" as="geometry" />
        </mxCell>
        <mxCell id="J8y7uaH8IraPNljRpGLL-60" value="" style="rounded=0;whiteSpace=wrap;html=1;fillColor=#d5e8d4;strokeColor=#82b366;" parent="J8y7uaH8IraPNljRpGLL-91" vertex="1">
          <mxGeometry x="110" y="230" width="20" height="10" as="geometry" />
        </mxCell>
        <mxCell id="J8y7uaH8IraPNljRpGLL-61" value="" style="curved=1;endArrow=classic;html=1;rounded=0;entryX=0;entryY=0.75;entryDx=0;entryDy=0;exitX=0;exitY=0.5;exitDx=0;exitDy=0;dashed=1;" parent="J8y7uaH8IraPNljRpGLL-91" source="J8y7uaH8IraPNljRpGLL-60" target="J8y7uaH8IraPNljRpGLL-54" edge="1">
          <mxGeometry width="50" height="50" relative="1" as="geometry">
            <mxPoint x="50" y="240" as="sourcePoint" />
            <mxPoint x="100" y="190" as="targetPoint" />
            <Array as="points">
              <mxPoint x="80" y="210" />
            </Array>
          </mxGeometry>
        </mxCell>
        <mxCell id="J8y7uaH8IraPNljRpGLL-62" value="" style="rounded=0;whiteSpace=wrap;html=1;fillColor=#d5e8d4;strokeColor=#82b366;" parent="J8y7uaH8IraPNljRpGLL-91" vertex="1">
          <mxGeometry x="150" y="255" width="20" height="10" as="geometry" />
        </mxCell>
        <mxCell id="J8y7uaH8IraPNljRpGLL-63" value="" style="curved=1;endArrow=classic;html=1;rounded=0;exitX=1;exitY=0.5;exitDx=0;exitDy=0;dashed=1;" parent="J8y7uaH8IraPNljRpGLL-91" source="J8y7uaH8IraPNljRpGLL-62" target="J8y7uaH8IraPNljRpGLL-55" edge="1">
          <mxGeometry width="50" height="50" relative="1" as="geometry">
            <mxPoint x="210" y="242" as="sourcePoint" />
            <mxPoint x="195" y="200" as="targetPoint" />
            <Array as="points">
              <mxPoint x="190" y="220" />
            </Array>
          </mxGeometry>
        </mxCell>
        <mxCell id="J8y7uaH8IraPNljRpGLL-64" value="" style="rounded=0;whiteSpace=wrap;html=1;fillColor=#d5e8d4;strokeColor=#82b366;" parent="J8y7uaH8IraPNljRpGLL-91" vertex="1">
          <mxGeometry x="240" y="220" width="20" height="10" as="geometry" />
        </mxCell>
        <mxCell id="J8y7uaH8IraPNljRpGLL-65" value="" style="curved=1;endArrow=classic;html=1;rounded=0;entryX=0;entryY=0.75;entryDx=0;entryDy=0;exitX=0;exitY=0.5;exitDx=0;exitDy=0;dashed=1;" parent="J8y7uaH8IraPNljRpGLL-91" source="J8y7uaH8IraPNljRpGLL-64" target="J8y7uaH8IraPNljRpGLL-56" edge="1">
          <mxGeometry width="50" height="50" relative="1" as="geometry">
            <mxPoint x="210" y="290" as="sourcePoint" />
            <mxPoint x="260" y="240" as="targetPoint" />
            <Array as="points">
              <mxPoint x="220" y="210" />
            </Array>
          </mxGeometry>
        </mxCell>
        <mxCell id="AxFweGhwPLzHDtxI3wwa-1" style="rounded=0;orthogonalLoop=1;jettySize=auto;html=1;exitX=0.5;exitY=0;exitDx=0;exitDy=0;entryX=0.75;entryY=1;entryDx=0;entryDy=0;" parent="J8y7uaH8IraPNljRpGLL-91" source="J8y7uaH8IraPNljRpGLL-66" target="J8y7uaH8IraPNljRpGLL-75" edge="1">
          <mxGeometry relative="1" as="geometry" />
        </mxCell>
        <mxCell id="J8y7uaH8IraPNljRpGLL-66" value="`p_{\gamma+1}(x)`" style="text;html=1;strokeColor=none;fillColor=none;align=center;verticalAlign=middle;whiteSpace=wrap;rounded=0;" parent="J8y7uaH8IraPNljRpGLL-91" vertex="1">
          <mxGeometry x="276" y="155" width="44" height="30" as="geometry" />
        </mxCell>
        <mxCell id="J8y7uaH8IraPNljRpGLL-68" style="edgeStyle=orthogonalEdgeStyle;rounded=0;orthogonalLoop=1;jettySize=auto;html=1;exitX=0.5;exitY=0;exitDx=0;exitDy=0;entryX=0.5;entryY=1;entryDx=0;entryDy=0;" parent="J8y7uaH8IraPNljRpGLL-91" source="J8y7uaH8IraPNljRpGLL-42" target="J8y7uaH8IraPNljRpGLL-44" edge="1">
          <mxGeometry relative="1" as="geometry" />
        </mxCell>
        <mxCell id="J8y7uaH8IraPNljRpGLL-69" value="Tokens proposed by approx. model `M_q`&amp;nbsp;&lt;span style=&quot;border-color: var(--border-color); color: rgb(151, 208, 119);&quot;&gt;(&lt;/span&gt;&lt;b style=&quot;border-color: var(--border-color); color: rgb(151, 208, 119);&quot;&gt;auto-regrassively&lt;/b&gt;&lt;span style=&quot;border-color: var(--border-color); color: rgb(151, 208, 119);&quot;&gt;)&lt;/span&gt;" style="text;html=1;strokeColor=none;fillColor=none;align=center;verticalAlign=middle;whiteSpace=wrap;rounded=0;" parent="J8y7uaH8IraPNljRpGLL-91" vertex="1">
          <mxGeometry x="115" y="450" width="171" height="30" as="geometry" />
        </mxCell>
        <mxCell id="J8y7uaH8IraPNljRpGLL-73" style="edgeStyle=orthogonalEdgeStyle;rounded=0;orthogonalLoop=1;jettySize=auto;html=1;exitX=0.5;exitY=0;exitDx=0;exitDy=0;" parent="J8y7uaH8IraPNljRpGLL-91" source="J8y7uaH8IraPNljRpGLL-44" edge="1">
          <mxGeometry relative="1" as="geometry">
            <mxPoint x="199.86" y="330" as="sourcePoint" />
            <mxPoint x="200" y="300" as="targetPoint" />
          </mxGeometry>
        </mxCell>
        <mxCell id="J8y7uaH8IraPNljRpGLL-74" value="&lt;font color=&quot;#0000ff&quot;&gt;(&lt;b&gt;`1` forward&lt;/b&gt;)&lt;/font&gt;" style="text;html=1;strokeColor=none;fillColor=none;align=center;verticalAlign=middle;whiteSpace=wrap;rounded=0;" parent="J8y7uaH8IraPNljRpGLL-91" vertex="1">
          <mxGeometry x="160" y="280" width="80" height="20" as="geometry" />
        </mxCell>
        <mxCell id="J8y7uaH8IraPNljRpGLL-75" value="Speculative Decoding" style="rounded=0;whiteSpace=wrap;html=1;fillColor=#f8cecc;strokeColor=#b85450;" parent="J8y7uaH8IraPNljRpGLL-91" vertex="1">
          <mxGeometry x="140" y="70" width="130" height="40" as="geometry" />
        </mxCell>
        <mxCell id="J8y7uaH8IraPNljRpGLL-76" style="rounded=0;orthogonalLoop=1;jettySize=auto;html=1;exitX=0.5;exitY=0;exitDx=0;exitDy=0;entryX=0.25;entryY=1;entryDx=0;entryDy=0;" parent="J8y7uaH8IraPNljRpGLL-91" source="J8y7uaH8IraPNljRpGLL-54" target="J8y7uaH8IraPNljRpGLL-75" edge="1">
          <mxGeometry relative="1" as="geometry" />
        </mxCell>
        <mxCell id="J8y7uaH8IraPNljRpGLL-78" value="&lt;font style=&quot;font-size: 18px;&quot;&gt;&lt;b&gt;...&lt;/b&gt;&lt;/font&gt;" style="text;html=1;strokeColor=none;fillColor=none;align=center;verticalAlign=middle;whiteSpace=wrap;rounded=0;" parent="J8y7uaH8IraPNljRpGLL-91" vertex="1">
          <mxGeometry x="190" y="160" width="30" height="20" as="geometry" />
        </mxCell>
        <mxCell id="J8y7uaH8IraPNljRpGLL-79" value="" style="endArrow=classic;html=1;rounded=0;exitX=0.5;exitY=0;exitDx=0;exitDy=0;entryX=0.5;entryY=1;entryDx=0;entryDy=0;" parent="J8y7uaH8IraPNljRpGLL-91" source="J8y7uaH8IraPNljRpGLL-78" target="J8y7uaH8IraPNljRpGLL-75" edge="1">
          <mxGeometry width="50" height="50" relative="1" as="geometry">
            <mxPoint x="10" y="160" as="sourcePoint" />
            <mxPoint x="60" y="110" as="targetPoint" />
          </mxGeometry>
        </mxCell>
        <mxCell id="J8y7uaH8IraPNljRpGLL-77" style="rounded=0;orthogonalLoop=1;jettySize=auto;html=1;exitX=0.5;exitY=0;exitDx=0;exitDy=0;entryX=0.387;entryY=1.008;entryDx=0;entryDy=0;entryPerimeter=0;" parent="J8y7uaH8IraPNljRpGLL-91" source="J8y7uaH8IraPNljRpGLL-55" target="J8y7uaH8IraPNljRpGLL-75" edge="1">
          <mxGeometry relative="1" as="geometry">
            <mxPoint x="200" y="110" as="targetPoint" />
          </mxGeometry>
        </mxCell>
        <mxCell id="J8y7uaH8IraPNljRpGLL-80" value="" style="endArrow=classic;html=1;rounded=0;exitX=0.5;exitY=0;exitDx=0;exitDy=0;entryX=0.628;entryY=0.992;entryDx=0;entryDy=0;entryPerimeter=0;" parent="J8y7uaH8IraPNljRpGLL-91" source="J8y7uaH8IraPNljRpGLL-56" target="J8y7uaH8IraPNljRpGLL-75" edge="1">
          <mxGeometry width="50" height="50" relative="1" as="geometry">
            <mxPoint x="10" y="160" as="sourcePoint" />
            <mxPoint x="60" y="110" as="targetPoint" />
          </mxGeometry>
        </mxCell>
        <mxCell id="J8y7uaH8IraPNljRpGLL-82" style="edgeStyle=orthogonalEdgeStyle;rounded=0;orthogonalLoop=1;jettySize=auto;html=1;exitX=1;exitY=0.5;exitDx=0;exitDy=0;entryX=0;entryY=0.5;entryDx=0;entryDy=0;" parent="J8y7uaH8IraPNljRpGLL-91" source="J8y7uaH8IraPNljRpGLL-81" target="J8y7uaH8IraPNljRpGLL-75" edge="1">
          <mxGeometry relative="1" as="geometry" />
        </mxCell>
        <mxCell id="J8y7uaH8IraPNljRpGLL-81" value="`{q_1(x), ...,q_\gamma(x)&lt;br&gt;}`" style="text;html=1;strokeColor=none;fillColor=none;align=center;verticalAlign=middle;whiteSpace=wrap;rounded=0;" parent="J8y7uaH8IraPNljRpGLL-91" vertex="1">
          <mxGeometry y="70" width="110" height="40" as="geometry" />
        </mxCell>
        <mxCell id="J8y7uaH8IraPNljRpGLL-83" value="For example, accept tokens `\{x_1, x_2, x_3\}`&lt;br&gt;then resample `x_4` from `p_4(x)` or `p&#39;_4(x)`" style="text;html=1;strokeColor=none;fillColor=none;align=center;verticalAlign=middle;whiteSpace=wrap;rounded=0;" parent="J8y7uaH8IraPNljRpGLL-91" vertex="1">
          <mxGeometry x="80" width="250" height="40" as="geometry" />
        </mxCell>
        <mxCell id="J8y7uaH8IraPNljRpGLL-89" value="&lt;font color=&quot;#0000ff&quot;&gt;&lt;b&gt;Run `M_p` in parallel&lt;/b&gt;&lt;/font&gt;" style="text;html=1;strokeColor=none;fillColor=none;align=center;verticalAlign=middle;whiteSpace=wrap;rounded=0;" parent="J8y7uaH8IraPNljRpGLL-91" vertex="1">
          <mxGeometry x="140" y="310" width="120" height="20" as="geometry" />
        </mxCell>
        <mxCell id="J8y7uaH8IraPNljRpGLL-84" style="edgeStyle=orthogonalEdgeStyle;rounded=0;orthogonalLoop=1;jettySize=auto;html=1;exitX=0.5;exitY=0;exitDx=0;exitDy=0;entryX=0.5;entryY=1;entryDx=0;entryDy=0;" parent="J8y7uaH8IraPNljRpGLL-91" source="J8y7uaH8IraPNljRpGLL-75" target="J8y7uaH8IraPNljRpGLL-83" edge="1">
          <mxGeometry relative="1" as="geometry" />
        </mxCell>
        <mxCell id="J8y7uaH8IraPNljRpGLL-92" style="edgeStyle=orthogonalEdgeStyle;rounded=0;orthogonalLoop=1;jettySize=auto;html=1;exitX=1;exitY=0.5;exitDx=0;exitDy=0;dashed=1;fillColor=#f8cecc;strokeColor=#b85450;endArrow=none;endFill=0;" parent="1" source="J8y7uaH8IraPNljRpGLL-75" edge="1">
          <mxGeometry relative="1" as="geometry">
            <mxPoint x="719" y="340" as="targetPoint" />
          </mxGeometry>
        </mxCell>
      </root>
    </mxGraphModel>
  </diagram>
</mxfile>
